<?xml version="1.0"?>
<svg width="82" height="97" xmlns="http://www.w3.org/2000/svg" xmlns:svg="http://www.w3.org/2000/svg" version="1.1">
 <defs>
  <clipPath id="c0_1">
   <path d="m170.4,67.2l0,-23.6l220,0l0,23.6l-220,0z" id="svg_1"/>
  </clipPath>
  <style type="text/css">
   <![CDATA[
.g1_1{
fill: #DEDFDF;
}
.g2_1{
fill: #E7E8E8;
}
.g3_1{
fill: #FFFFFF;
}
.g4_1{
}
.g5_1{
fill: none;
stroke: #000000;
stroke-width: 2.1006944;
stroke-linecap: butt;
stroke-linejoin: miter;
}
.g6_1{
fill: none;
stroke: #000000;
stroke-width: 1.1458334;
stroke-linecap: butt;
stroke-linejoin: miter;
}
.g7_1{
fill: #C3C4C6;
}
.g8_1{
fill: none;
stroke: #000000;
stroke-width: 1.9097222;
stroke-linecap: butt;
stroke-linejoin: miter;
}
.g9_1{
fill: none;
stroke: #B5B6B6;
stroke-width: 0.38194445;
stroke-linecap: butt;
stroke-linejoin: miter;
stroke-miterlimit: 4;
}
.g10_1{
fill: none;
stroke: #000000;
stroke-width: 0.7638889;
stroke-linecap: butt;
stroke-linejoin: miter;
}
.g11_1{
fill: #242122;
}
]]>
  </style>
  <style class="darkreader darkreader--sync" media="screen"/>
 </defs>
 <g class="layer">
  <title>Layer 1</title>
  <path class="g3_1" d="m1.45,31.45c0,0 3.4,17.2 2.2,32.9c0,0 -4.7,4.8 0.4,12.5l-0.4,8.4l37.3,0l37.2,0l-0.4,-8.4c5.2,-7.7 0.4,-12.5 0.4,-12.5c-1.1,-15.7 2.3,-32.9 2.3,-32.9l-2.2,-1.6c0.5,-0.8 1.7,-6.1 1.7,-6.1l-1.5,-17.7c-4.3,1.8 -7.2,-4.8 -7.2,-4.8l-30.3,0l-30.4,0c0,0 -2.8,6.6 -7.2,4.8l-1.4,17.7c0,0 1.2,5.3 1.6,6.1l-2.1,1.6z" fill="#0a141e" id="svg_96" style="--darkreader-inline-fill: var(--darkreader-background-0a141e, #081018);" transform="matrix(1 0 0 1 0 0)"/>
  <path class="g3_1" d="m40.95,66.75c10.3,0 18.6,5.6 18.6,12.5c0,7 -8.3,12.6 -18.6,12.6c-10.3,0 -18.7,-5.6 -18.7,-12.6c0,-6.9 8.4,-12.5 18.7,-12.5z" fill="#0a141e" id="svg_97" style="--darkreader-inline-fill: var(--darkreader-background-0a141e, #081018);" transform="matrix(1 0 0 1 0 0)"/>
  <path class="g1_1" d="m40.95,89.95c-9.1,0 -16.8,-4.9 -16.8,-10.6c0,-5.8 7.7,-10.7 16.8,-10.7c9,0 16.7,4.9 16.7,10.7c0,5.7 -7.7,10.6 -16.7,10.6m0,3.8c11.3,0 20.5,-6.4 20.5,-14.4c0,-8.1 -9.2,-14.5 -20.5,-14.5c-11.4,0 -20.6,6.4 -20.6,14.5c0,8 9.2,14.4 20.6,14.4z" fill="#141e28" id="svg_98" style="--darkreader-inline-fill: var(--darkreader-background-141e28, #101820);" transform="matrix(1 0 0 1 0 0)"/>
  <path class="g4_1" d="m63.65,86.35l2.5,-2l-2.4,0c0.6,-1.5 0.8,-2.9 0.9,-4.2c0.8,1.2 2.6,2.9 5.3,1.9c-0.6,0.1 -3.1,0.5 -5.3,-4.1c-0.5,-3.7 -2.6,-5.4 -2.6,-5.4c2.2,4.3 1.7,8.1 1,10.4c0,0 -0.4,0.6 -1.3,0.6c0.5,-1.4 0.8,-2.8 0.8,-4.3c0,-8.5 -9.7,-15.5 -21.6,-15.5c-12,0 -21.7,7 -21.7,15.5c0,1.5 0.3,2.9 0.9,4.3c-0.9,0 -1.4,-0.6 -1.4,-0.6c-0.7,-2.3 -1.2,-6.1 1,-10.4c0,0 -2.1,1.7 -2.5,5.4c-2.2,4.6 -4.7,4.2 -5.3,4.1c2.6,1 4.4,-0.7 5.2,-1.9c0.1,1.3 0.4,2.7 0.9,4.2l-2.3,0l2.5,2c0,0 2.7,1.9 2.1,5.6c0,0 -0.4,1.2 0.7,1.4c1,0.1 2.2,-2.2 -1.1,-7l1.7,0c0.5,0.7 1,1.3 1.6,1.9l0,0.1c0,0 0.1,0 0.1,0.1c3.5,5.2 0.6,6 0.6,6c-0.3,0.1 -0.4,0.5 -0.3,0.7c0.6,0.9 4,0.6 2.5,-3.7c1.2,0.3 2.7,1 3.7,2.3l7.9,1l-0.1,-0.1c1.1,0.1 2.2,0.2 3.3,0.2c1.1,0 2.2,-0.1 3.2,-0.2l0,0.1l7.9,-1c0.9,-1.3 2.4,-2 3.6,-2.3c-1.4,4.3 2,4.6 2.5,3.7c0.2,-0.2 0,-0.6 -0.3,-0.7c0,0 -2.9,-0.8 0.6,-6c0.1,-0.1 0.1,-0.1 0.1,-0.1l0,-0.1c0.6,-0.6 1.2,-1.2 1.6,-1.9l1.7,0c-3.2,4.8 -2,7.1 -1,7c1.1,-0.2 0.6,-1.4 0.6,-1.4c-0.6,-3.7 2.2,-5.6 2.2,-5.6m-22.7,6.4c-7,0 -13.1,-2.6 -16.6,-6.4c-0.3,-0.3 -0.5,-0.6 -0.8,-0.9c0,-0.1 0,-0.1 0,-0.1c-0.3,-0.3 -0.5,-0.7 -0.7,-1c-0.9,-1.5 -1.4,-3.3 -1.4,-5.1c0,-7.3 8.7,-13.4 19.5,-13.4c10.7,0 19.5,6.1 19.5,13.4c0,1.8 -0.6,3.6 -1.5,5.1c-0.2,0.3 -0.4,0.7 -0.6,1c-0.1,0 -0.1,0 -0.1,0.1c-0.2,0.3 -0.5,0.6 -0.8,0.9c-3.4,3.8 -9.5,6.4 -16.5,6.4m34.2,-69.6c-0.5,2.3 0.3,4.4 1.4,5.9c-1.7,9.3 -0.1,42.5 0.2,46.4c0.7,-1 1.4,-2.6 1.8,-3.5c-0.1,-2 -0.1,-4.2 -0.2,-6.5c0.9,1.5 1.3,3.1 1.2,4.8c-0.2,1.9 -1,3.7 -2.1,5.4c-0.1,0.1 -0.1,0.1 -0.2,0.2c-0.1,0.2 -0.3,0.4 -0.4,0.7c-0.1,0 -0.1,0 -0.1,0c-2.4,3.3 -5.5,5.5 -5.7,5.7c-1.2,0.6 -2.4,1.4 -3.5,2.1l-0.1,0l-0.2,0.2c-0.4,0.3 -0.8,0.6 -1.2,0.9l-0.1,0c-0.4,0.3 -0.8,0.6 -1.1,0.9l-0.1,0c-2.5,2.2 -1.6,4.2 -0.9,4.4c0.8,0.3 1.1,-0.8 1.1,-0.8c0,-1.8 1.2,-3 2.1,-3.6l0.1,0l1.9,0l10.5,0l-0.1,-1.1c0,-0.1 -0.2,-1.5 -0.4,-3.8c0.3,0 0.6,0 0.9,0c0.1,0 0.2,0.1 0.4,0.1c0.2,0.1 0.3,0.2 0.1,0.5c-0.3,0.6 -0.7,0.9 -0.7,0.9c0,0 1.1,-0.2 1.7,-1.2c0.6,-1 -0.7,-1.9 -2.2,-1.8c-0.1,0 -0.2,0.1 -0.3,0.1c0,-1.2 -0.1,-2.4 -0.2,-3.8c1.1,-1.8 2,-3.8 2.2,-5.9c0.3,-2.7 -0.6,-5.1 -2.6,-7.3c0,-0.4 0,-0.8 0,-1.2c0,0 1.4,-25.8 2.7,-30l0.2,-0.5l-0.5,-0.3c0,0 -1.1,-0.7 -2.2,-1.8c0,0 -1.2,-1.1 -1.6,-2.3c-0.5,-1 -0.7,-2.1 -0.4,-3.4c0,-0.1 0.6,-1.3 1.1,-2.9l0.3,2.8c-0.3,0.8 -0.5,1.7 -0.7,2.5c0.3,0.6 0.8,1.6 1.5,2.1c0.3,-1.5 0.7,-2.9 1.1,-4.1l0.1,-0.2l-1.3,-13.9c0,2.1 -1.4,6.6 -1.4,6.6c-0.4,2.8 -2,6.5 -2.1,6.7m1.8,55.6c0,0.5 0,1 0.1,1.4c-0.6,0.1 -1.2,0.2 -1.8,0.4c0.5,-0.6 1.1,-1.2 1.7,-1.8m-6.8,5.6c2.4,-1.4 4.8,-2.5 7,-2.7c0.1,1.1 0.1,2.1 0.2,2.7l-7.2,0zm8.1,-53.4c0.5,0.5 0.9,0.8 1.3,1c-0.9,3.3 -1.7,11.9 -2.2,17.6c0,-4.5 0.1,-13.3 0.9,-18.6m-73.5,-17.1c-0.9,-2.3 -1.4,-7.4 -1.4,-7.4l0,-0.4l0.7,-0.2c1.4,-0.4 5.6,-2.3 5.6,-4.7l0,-0.9l62.5,0l0,0.9c0,2.4 4.2,4.3 5.7,4.7l0.6,0.2l0.1,0.4c0,0 -0.5,5.1 -1.5,7.4l-0.4,-6.3c-1.7,-0.6 -5.6,-2.3 -6.4,-5.4l-58.7,0c-0.7,3.1 -4.7,4.8 -6.3,5.4l-0.5,6.3zm-4.3,67.9c0.6,1 1.7,1.2 1.7,1.2c0,0 -0.4,-0.3 -0.8,-0.9c-0.1,-0.3 0,-0.4 0.2,-0.5c0.1,0 0.2,-0.1 0.3,-0.1l0.1,0c0.2,0 0.5,0 0.8,0c-0.2,2.3 -0.3,3.7 -0.3,3.8l-0.2,1.1l10.5,0l1.9,0l0.1,0c1,0.6 2.2,1.8 2.1,3.6c0,0 0.3,1.1 1.1,0.8c0.7,-0.2 1.6,-2.2 -0.9,-4.4c-0.3,-0.3 -0.7,-0.6 -1.2,-0.9c-0.4,-0.3 -0.8,-0.6 -1.2,-0.9l-0.3,-0.2c-1.1,-0.7 -2.3,-1.5 -3.5,-2.1c-0.2,-0.2 -3.4,-2.4 -5.8,-5.7c-0.2,-0.3 -0.3,-0.5 -0.5,-0.7c0,-0.1 -0.1,-0.1 -0.1,-0.2c-1.1,-1.7 -2,-3.5 -2.1,-5.4c-0.2,-1.7 0.2,-3.3 1.1,-4.8c0,2.3 -0.1,4.5 -0.2,6.5c0.4,0.9 1.1,2.5 1.9,3.5c0.2,-3.9 1.8,-37.1 0.2,-46.4c1.1,-1.5 1.9,-3.6 1.3,-5.9c0,-0.2 -1.6,-3.9 -2.1,-6.7c0,0 -1.4,-4.5 -1.4,-6.6l-1.2,13.9l0,0.2c0.5,1.2 0.8,2.6 1.1,4.1c0.7,-0.5 1.3,-1.5 1.6,-2.1c-0.2,-0.8 -0.5,-1.7 -0.7,-2.5l0.2,-2.8c0.6,1.6 1.1,2.8 1.2,2.9c0.2,1.3 0,2.4 -0.5,3.4c-0.4,1.2 -1.5,2.3 -1.5,2.3c-1.1,1.1 -2.2,1.8 -2.2,1.8l-0.5,0.3l0.2,0.5c1.2,4.2 2.6,30 2.6,30c0,0.4 0,0.8 0,1.2c-1.9,2.2 -2.8,4.6 -2.6,7.3c0.2,2.1 1.1,4.1 2.2,5.9c0,1.4 -0.1,2.6 -0.2,3.8c-0.1,0 -0.2,-0.1 -0.3,-0.1c-1.5,-0.1 -2.8,0.8 -2.1,1.8m4.5,-3c0.6,0.6 1.1,1.2 1.7,1.8c-0.6,-0.2 -1.2,-0.3 -1.8,-0.4c0,-0.4 0.1,-0.9 0.1,-1.4m-0.2,2.9c2.1,0.2 4.6,1.3 6.9,2.7l-7.2,0c0.1,-0.6 0.2,-1.6 0.3,-2.7m-2.4,-49.7c0.3,-0.2 0.8,-0.5 1.3,-1c0.7,5.3 0.9,14.1 0.8,18.6c-0.5,-5.7 -1.2,-14.3 -2.1,-17.6z" fill="#ffffff" id="svg_99" style="--darkreader-inline-fill: var(--darkreader-background-ffffff, #181a1b);"/>
 </g>
</svg>